<?xml version="1.0" encoding="utf-8"?>
<!-- Generator: Adobe Illustrator 22.0.1, SVG Export Plug-In . SVG Version: 6.00 Build 0)  -->
<svg version="1.1" id="Layer_1" xmlns="http://www.w3.org/2000/svg" xmlns:xlink="http://www.w3.org/1999/xlink" x="0px" y="0px"
	 viewBox="0 0 1119.4 1213.2" style="enable-background:new 0 0 1119.4 1213.2;" xml:space="preserve">
<g>
	<g>
		<path d="M512,1212.8c-11.4-2.1-25.2-4.6-27.4-5.2c-14.6-4.1-28.8-9.5-42.5-16c-25.9-12.2-49.9-28.3-70.5-48.4
			c-30.4-29.8-60.3-59.7-88.1-87.5c-63.9-64-128.7-129.1-191.5-192.1l-6.9-6.9c-25.8-25.9-44.9-52.7-58.5-82
			c-10.7-23-18.2-47.1-22.4-71.7c-3.6-20.9-4.9-39.3-4-56.3c1.3-25.7,5.5-50.1,12.5-72.5c10.5-33.7,27.1-64.8,49.3-92.4
			c6.1-7.5,13-15.2,22-24.2c55-55.3,112.4-113,170.7-171.4c54.5-54.6,109-109.1,163.6-163.7c9.1-9.1,18.3-18.3,27.4-27.4
			s18.3-18.3,27.4-27.4s18.3-18.3,27.4-27.4c9.1-9.2,18.3-18.3,27.4-27.5c2.5-2.5,5-4.9,7.3-7.6c7.6-7.4,15.3-6.8,16.9,0.9
			c1.6,11.5,2.9,23,2.9,34.6c0.6,15.5,1.2,31.5,0.3,47.4c-3.1,49.8-13.4,96.8-30.5,139.6c-22.6,56.5-56.3,108-95.6,154.2
			c-22.1,25.9-45,50.1-64.4,78.4c-17.2,25.1-32.8,52.1-46.3,80.1c-20.3,42.1-34.6,85.5-42.7,129c-3.1,16.5-4.7,33.3-6.1,49.1
			c-1.5,17.1-2.1,30-1.8,42.1c1.2,54.3,12.4,108.1,33.4,160c5.6,13.9,31.9,65.7,33.6,68.4c-1.8-11.2-10.8-42.9-11.8-53.9l-0.1-0.6
			c-1.5-16.7-3.1-34-2.7-51.1c0.5-21.7,2.3-43.2,4.7-68.7c3.2-33.6,11.2-68.8,24.3-107.5c14.5-42.7,33.9-83.4,57.6-121
			c16.3-25.8,32.8-48.4,50.5-68.9c5.7-6.6,11.5-13.1,17.2-19.4c5.8-6.4,11.8-13.1,17.5-19.7c17.8-20.8,32.5-41.2,44.8-62.5
			c11.2-19.3,19.8-35.2,27-50.1c40-82.4,56.1-175.1,48-266.1c-1.5-17-3.4-33.9-4.4-50.9c-0.3-6.1,8-10.7,13.6-5.6
			c3.7,3.5,7.3,7,10.9,10.5c15.1,14.7,32.8,28.3,36.5,50l0.1,0.6c3.7,22,7.6,44.8,8,68c0.1,4.5,0.3,9.2,0.5,13.7
			c0.4,9.6,0.8,19.5,0.2,29.4c-1.7,28.8-5.1,54.4-10.4,78.2c-8.6,38.5-22.5,76.3-41.1,112.5c-15.3,29.8-33.1,57.1-52.7,81
			c-8.2,10-16.8,19.7-25.2,29.1c-8,9-16.3,18.3-24,27.7c-14.7,17.8-26.6,33-37.2,49.2c-16.4,25.2-30.1,48.4-41.8,70.7
			c-19.3,36.7-33.7,76.2-43,117.6c-4.1,18.4-7.2,37-9.2,55.4c-2.1,19.6-3.1,38.9-2.9,57.4c0.2,28.7,4,58.6,11.1,89.1
			c8.5,36.6,50.4,131.6,51.6,131.1c1.2-0.4-7.8-44.9-8.5-53.3c-1.3-15.7-1.9-29.8-2-43c-0.1-22.5,1.4-46.6,4.7-73.6
			c4.2-34.4,12.2-68.9,24.5-105.8c7.7-23.1,17.5-46.5,30-71.5c15.4-31,32.8-59.5,51.7-84.6c14.3-19.1,29.7-37.7,45.8-55.4
			c29.1-31.9,52.6-64.6,71.8-100c17.7-32.5,32.1-66.9,42.8-102.2c13.5-44.3,20.5-90.5,21.9-136.8c1.2-40.8-4.1-80-9.2-120
			c-2.2-12.2,5.3-13.4,11.2-8.4c2.1,2,4.2,3.9,6.3,5.9c16.7,15.8,32,29.2,36.9,52.5c1.2,5.7,2.5,11.4,3.8,17c2.1,9.3,4.3,19,6,28.6
			c7.9,45.5,6.5,90.8,1.3,136.4c-4.4,37.9-15.4,76.3-33.7,117.4c-15.4,34.5-35.5,67.5-61.6,101c-16.4,21.1-34.9,40.5-52.3,58.6
			c-30.9,32-58.6,69.1-82.3,110.4c-20.2,35.1-36.3,71.2-47.8,107.3c-7.7,24.2-13.6,49.1-17.4,74.2c-4.3,28.6-5.9,58.3-4.5,88.2
			c1.1,23.7,4.4,47.9,10,72c3.5,15.2,7.7,30.2,12.5,45.1c3.1,9.3,7,18.5,9.9,28C526.4,1208,522.1,1214.9,512,1212.8z M539.5,22.6
			C502.7,59.5,465.8,96.4,429,133.2c-54.5,54.6-109,109.1-163.5,163.7C207.1,355.3,149.7,413,94.7,468.3c-8.5,8.6-15.2,15.9-20.9,23
			c-21,26.1-36.7,55.6-46.7,87.5c-6.7,21.5-10.6,44-11.9,68.8c-0.8,15.8,0.4,33.1,3.8,52.9c4,23.3,11.1,46.1,21.2,67.9
			c12.8,27.6,31,53,55.5,77.7l6.9,6.9c62.7,63,127.6,128.1,191.5,192.1c27.8,27.8,57.7,57.7,88,87.4c20.3,19.9,44.6,36.2,72.2,48.2
			c18.3,8,35.6,13.5,52.5,16.8c-7.7-20.6-14.1-42.3-19.3-64.8c-5.8-24.9-9.2-50.1-10.3-74.7c-1.4-30.9,0.2-61.6,4.7-91.2
			c3.9-25.8,9.9-51.6,17.9-76.5c11.9-37.2,28.4-74.3,49.1-110.3c24.4-42.3,52.8-80.5,84.5-113.3c17.2-17.8,35.3-36.9,51.3-57.4
			c25.3-32.5,44.8-64.5,59.7-97.8c17.7-39.7,28.3-76.6,32.5-113c2.1-18.5,3.6-38.2,4.8-64c0.4-8.3-0.4-16.6-1.2-25.5
			c-0.2-1.8-0.3-3.5-0.5-5.3l-0.4-4.1c-1-11-2-22.4-3.8-33.2c-1.6-9.3-3.8-18.7-5.8-27.8c-1.3-5.7-2.6-11.5-3.8-17.3
			c-2.7-13.2-7.2-21.5-15-27.7c-2.3-1.8-4.4-3.8-6.5-5.8c0.6,4,1.1,8,1.5,12.1c0.3,2.5,0.5,4.9,0.8,7.4c1.6,14.8,3.3,30.2,3.9,45.5
			c0.6,13.9,0.3,29-0.8,47.8c-1.1,17.7-3,35.3-5,51.8c-2.8,23.5-8.2,48-17,77c-11,36.3-25.9,71.7-44,105
			c-19.9,36.5-44,70.2-73.9,103c-15.8,17.3-30.9,35.6-44.9,54.3C546.9,716.1,530,743.8,515,774c-12.1,24.4-21.7,47.1-29.2,69.6
			c-12,35.8-19.8,69.4-23.8,102.8c-3.2,26.4-4.7,49.8-4.6,71.7c0.1,12.8,0.7,26.5,1.9,41.8c1,12,2.5,24.3,4.5,36.4
			c1.6,9.8,3.6,19.4,5.7,29.6c1.6,12.1-11,15.9-18.3,6.6c-5.5-9.1-11.2-18.5-16.7-27.7c-1.8-2.9-3.6-5.9-5.5-8.8
			c-4.7-7.5-9.6-15.3-13.4-23.7c-12.2-26.8-21.9-55.5-28.9-85.5c-7.4-31.5-11.2-62.6-11.5-92.4c-0.2-19.1,0.8-39,3-59.2
			c2-19,5.2-38.2,9.4-57.1c9.5-42.6,24.5-83.4,44.3-121.3c11.9-22.7,25.9-46.2,42.6-71.9c10.9-16.8,23.1-32.3,38.1-50.6
			c7.9-9.6,16.3-19.1,24.4-28.2c8.3-9.3,16.8-18.9,24.8-28.7c19-23.2,36.1-49.5,51-78.4c18.1-35.1,31.5-71.7,39.8-108.9
			c5.2-23,8.5-47.8,10.1-75.8c0.5-9.1,0.2-18.2-0.2-27.9c-0.2-4.6-0.4-9.3-0.5-14.1c-0.4-22-4.2-44.2-7.8-65.7l-0.1-0.6
			c-1.6-9.2-4.4-14.9-9.7-19.6c-7-6.1-13.5-12.8-19.8-19.3c0.6,4.1,1.1,8.3,1.6,12.5c0.9,8.2,1.6,16.9,2.1,25.7l0.3,5.7
			c0.7,12.6,1.4,25.6,1.5,38.5c0.1,7.6-0.6,15.1-1.2,22.3c-0.2,2.7-0.4,5.4-0.6,8c-0.2,2.5-0.3,5-0.4,7.5
			c-0.4,6.7-0.7,13.6-1.9,20.5l-0.7,4.2c-3,18.5-6.1,37.5-10.5,56.1c-8.5,35.9-21,70.9-37,103.9c-7.4,15.2-16.1,31.5-27.5,51.1
			c-12.8,22.1-28,43.2-46.4,64.7c-5.8,6.8-11.9,13.5-17.8,20c-5.6,6.2-11.4,12.7-17,19.1c-17.2,19.9-33.3,41.9-49.2,67.1
			c-23.1,36.6-42,76.2-56.1,117.8c-12.8,37.6-20.5,71.6-23.6,104.1c-2.4,25.2-4.2,46.3-4.7,67.6c-0.4,16.3,1.2,33.1,2.7,49.4
			l0.1,0.6c1.2,13.5,3.5,27.2,5.8,41.3c1.2,7.1,2.7,14,4.4,21.4c1.3,12.8-13.3,13.2-17.8,6c-3.9-6.4-7.9-12.9-11.7-19.5
			c-2.8-4.9-5.9-9.9-8.8-14.7c-8-13.2-16.3-26.8-22.4-41.8c-21.7-53.6-33.3-109.2-34.5-165.3c-0.3-12.6,0.3-26.1,1.9-43.7
			c1.4-16.1,3.1-33.3,6.3-50.5c8.3-44.8,23.1-89.4,44-132.7c13.8-28.7,29.8-56.4,47.4-82.1s37.1-49.8,57.9-71.5
			c7.2-7.5,15.3-16,21.9-25.1c13.5-18.5,29.2-40.4,43.6-62.6c12.3-19.1,23.1-40.8,35-70.4c16.5-41.3,26.5-86.7,29.5-134.9
			c0.9-15.1,0.3-30.7-0.3-45.8c-0.2-5.1-0.4-10.3-0.6-15.5C539.7,24.8,539.6,23.7,539.5,22.6z"/>
	</g>
	<g>
		<path d="M569.5,1213c-4.7,0.2-9.4,0.3-14.1,0.2c-4.8,0-14.8-4-15.3-18.2c-2.5-57.4,3.3-115.2,17.5-170.9
			c20-79.1,63.4-149.7,113.2-213.6c25.3-32.5,52.5-63.5,80-94.1c25.4-28.2,42.1-63.8,58.6-98c48.8-100.6,59-221.9,34.5-330.5
			c-1.9-8.9,3.4-17.8,14-9.2c18.4,17.1,35.8,35.1,53.6,52.8c44.4,44.4,90.4,90.4,135.3,135.8c66,66.9,87.8,173.1,62.1,262.4
			c-7.8,27.2-19.5,52.7-34.8,75.7c-14.3,21.5-32.1,39.9-47.6,55.5c-32.6,32.6-65.2,65.1-97.7,97.7
			c-60.3,60.4-118.1,126.8-182.2,182.8C697.8,1184.3,634.3,1210.1,569.5,1213z M556.3,1196.5c1.1,0,2.2,0,3.2,0
			c7.8,0.1,15.2,0.2,22.5-0.3c12.2-0.8,22.9-2.3,32.6-4.3c24.4-5.3,47.6-13.8,68.8-25.5c21.8-12,39.4-24.7,53.7-39
			c60.2-59.8,121.2-120.9,180.2-179.9c32.6-32.6,65.1-65.2,97.7-97.7c15-15,32.2-32.7,45.6-53c14.4-21.7,25.4-45.7,32.8-71.3
			c6.8-23.7,10.1-48.3,9.8-73.2c-0.1-8.2-0.4-14.8-1-20.7c-0.9-9.1-1.8-18-3.5-26.8c-3.5-18.6-9.4-37.5-17.6-56.2
			c-12.4-28.4-27.4-51.2-45.8-69.9c-44.9-45.4-90.8-91.4-135.2-135.8c-12.1-12.1-24.2-24.2-36.2-36.2c3.8,21.2,6.2,42.8,7.2,64.3
			c0.8,17.8,0.6,35.9,0.3,53.3c-0.1,3.8-0.1,7.6-0.2,11.4c-0.1,7.9-0.8,16.3-2.1,24.8c-2.9,18.9-5.5,36-8.9,53.1
			c-8.2,41.2-20.1,77.7-36.6,111.7c-11.6,23.9-22.8,45-34.3,64.5c-14.9,25.2-32.6,48.9-52.7,70.4c-4.5,4.8-9.1,9.7-13.6,14.3
			c-9.4,9.8-19.1,19.9-27.8,30.3c-16.7,19.9-31.2,38.5-44.3,56.9c-21.1,29.7-38.6,61.5-52.1,94.4c-8.2,20.1-15,36.9-20.3,54.7
			c-10.5,34.8-16.6,63.9-19.1,91.4c-0.4,4.1-0.8,8.1-1.2,12.2c-1,9.8-2,20-2.5,29.9c-0.5,11.1-0.4,22.6-0.2,33.7
			c0,1.9,0.1,3.8,0.1,5.8C555.7,1188,556,1192.3,556.3,1196.5z"/>
	</g>
</g>
</svg>
