<?xml version="1.0" encoding="UTF-8" standalone="no"?>
<!-- Creator: CorelDRAW -->

<svg
   xml:space="preserve"
   width="1000px"
   height="1000px"
   version="1.1"
   style="shape-rendering:geometricPrecision; text-rendering:geometricPrecision; image-rendering:optimizeQuality; fill-rule:evenodd; clip-rule:evenodd"
   viewBox="0 0 1000 1000"
   id="svg245"
   sodipodi:docname="chatarena-2.svg"
   inkscape:version="1.2.2 (b0a8486541, 2022-12-01)"
   xmlns:inkscape="http://www.inkscape.org/namespaces/inkscape"
   xmlns:sodipodi="http://sodipodi.sourceforge.net/DTD/sodipodi-0.dtd"
   xmlns="http://www.w3.org/2000/svg"
   xmlns:svg="http://www.w3.org/2000/svg"><sodipodi:namedview
   id="namedview247"
   pagecolor="#ffffff"
   bordercolor="#666666"
   borderopacity="1.0"
   inkscape:showpageshadow="2"
   inkscape:pageopacity="0.0"
   inkscape:pagecheckerboard="0"
   inkscape:deskcolor="#d1d1d1"
   showgrid="false"
   inkscape:zoom="0.5894754"
   inkscape:cx="493.65927"
   inkscape:cy="340.98115"
   inkscape:window-width="1366"
   inkscape:window-height="723"
   inkscape:window-x="-4"
   inkscape:window-y="-4"
   inkscape:window-maximized="0"
   inkscape:current-layer="layer1"
   showguides="false"><sodipodi:guide
     position="33.667007,674.87906"
     orientation="1,0"
     id="guide1685"
     inkscape:locked="false" /><inkscape:grid
     type="xygrid"
     id="grid1689" /><sodipodi:guide
     position="209.57641,628.87719"
     orientation="1,0"
     id="guide1705"
     inkscape:locked="false" /><sodipodi:guide
     position="966.33299,674.87906"
     orientation="1,0"
     id="guide1709"
     inkscape:locked="false" /><sodipodi:guide
     position="790.53341,674.87906"
     orientation="0,-1"
     id="guide1765"
     inkscape:locked="false" /><sodipodi:guide
     position="500,856.24896"
     orientation="1,0"
     id="guide1767"
     inkscape:locked="false" /><sodipodi:guide
     position="790.53341,866.24946"
     orientation="1,0"
     id="guide1771"
     inkscape:locked="false" /><sodipodi:guide
     position="67.62482,413.03743"
     orientation="1,0"
     id="guide1792"
     inkscape:locked="false" /><sodipodi:guide
     position="170.12302,537.69157"
     orientation="0,-1"
     id="guide468"
     inkscape:locked="false" /><sodipodi:guide
     position="33.667007,266.65819"
     orientation="-0.010618946,0.99994362"
     id="guide470"
     inkscape:locked="false" /><sodipodi:guide
     position="33.400069,588.70462"
     orientation="0,-1"
     id="guide488"
     inkscape:locked="false" /><sodipodi:guide
     position="135.52661,628.87719"
     orientation="0,-1"
     id="guide490"
     inkscape:locked="false" /><sodipodi:guide
     position="829.87699,801.59315"
     orientation="1,0"
     id="guide544"
     inkscape:locked="false" /><sodipodi:guide
     position="152.54349,571.98963"
     orientation="0,-1"
     id="guide548"
     inkscape:locked="false" /><sodipodi:guide
     position="82.936266,569.02762"
     orientation="1,0"
     id="guide552"
     inkscape:locked="false" /><sodipodi:guide
     position="932.37518,413.03743"
     orientation="1,0"
     id="guide554"
     inkscape:locked="false" /><sodipodi:guide
     position="917.63342,455.57978"
     orientation="1,0"
     id="guide556"
     inkscape:locked="false" /><sodipodi:guide
     position="135.52661,628.87719"
     orientation="1,0"
     id="guide2648"
     inkscape:locked="false" /><sodipodi:guide
     position="865.29224,674.07752"
     orientation="1,0"
     id="guide2650"
     inkscape:locked="false" /><sodipodi:guide
     position="168.31183,526.1656"
     orientation="0,-1"
     id="guide1525"
     inkscape:locked="false" /><sodipodi:guide
     position="33.48349,669.64236"
     orientation="0,-1"
     id="guide646"
     inkscape:locked="false" /><sodipodi:guide
     position="146.49021,547.74653"
     orientation="0,-1"
     id="guide648"
     inkscape:locked="false" /></sodipodi:namedview>
 <defs
   id="defs239"><rect
   x="290.62775"
   y="60.437375"
   width="708.27252"
   height="818.19108"
   id="rect337" /><rect
   x="466.5165"
   y="344.374"
   width="33.928472"
   height="27.142778"
   id="rect2858" />
  <style
   type="text/css"
   id="style237">
   <![CDATA[
    .str0 {stroke:#373435;stroke-width:2.36;stroke-miterlimit:22.9256}
    .fil0 {fill:none}
   ]]>
  </style>
 </defs>
 <g
   inkscape:groupmode="layer"
   id="layer1"
   inkscape:label="Layer 2"><path
     id="path914"
     style="display:none;opacity:1;fill:none;stroke:#000000;stroke-width:20.001;stroke-linecap:round;stroke-linejoin:round"
     d="M 146.49021,452.25347 C 74.055148,418.92165 33.483496,375.18504 33.48349,330.35764 33.483483,280.86649 82.634195,233.40237 170.12301,198.40685 257.61183,163.41132 376.27213,143.75104 500,143.75104 c 123.72787,0 242.38817,19.66028 329.87699,54.65581 87.48881,34.99552 136.63952,82.45964 136.63952,131.95079 -1e-5,49.49115 -63.31972,103.94766 -146.5065,138.34143 -212.98175,88.0578 -681.36909,38.80202 -684.4834,-97.57626 C 145.27,270.55793 396.11073,236.29991 500,237.76994 c 56.28269,0.7964 140.61117,5.13796 231.47007,27.94958 54.64343,13.71913 143.12835,56.78156 133.82217,105.40329 -9.00889,47.06845 -128.73852,83.42287 -200.666,92.46375"
     sodipodi:nodetypes="csssssscsssc" /><g
     id="g498"><g
       id="g480"><path
         style="clip-rule:evenodd;opacity:1;fill:none;fill-rule:evenodd;stroke:#000000;stroke-width:20.001;stroke-linecap:round;stroke-linejoin:round;stroke-dasharray:none;image-rendering:optimizeQuality;shape-rendering:geometricPrecision;text-rendering:geometricPrecision"
         d="m 932.37518,586.96257 c -14.28071,10.5459 -25.6611,18.75219 -39.79778,27.93845 -1.76089,-61.72966 -8.39345,-110.94418 -41.27953,-97.84524 -28.50418,11.35357 -27.56708,86.08992 -26.03922,133.71288 -17.0327,7.71125 -39.3177,18.45383 -60.15396,25.41582 -7.55106,2.52302 -15.17652,4.92279 -22.90754,7.20252 0,0 7.28612,-117.57827 -44.87749,-114.82003 -51.62346,2.72968 -39.28766,134.10792 -39.28766,134.10792 -31.00828,5.26533 -64.63948,9.18094 -102.24954,11.88629 0.0248,-36.35081 -5.60544,-128.58824 -55.78246,-128.58824 -50.17702,0 -55.80726,92.23743 -55.78246,128.58824 -37.61006,-2.70535 -71.24126,-6.62096 -102.24954,-11.88629 0,0 12.3358,-131.37824 -39.28766,-134.10792 -52.16361,-2.75824 -44.87749,114.82003 -44.87749,114.82003 -7.73102,-2.27973 -15.35648,-4.6795 -22.90754,-7.20252 -20.83626,-6.96199 -43.12126,-17.70457 -60.15396,-25.41582 1.52786,-47.62296 2.46496,-122.35931 -26.03922,-133.71288 -32.88608,-13.09894 -39.51864,36.11558 -41.27953,97.84524 -14.13668,-9.18626 -25.517074,-17.39255 -39.79778,-27.93845"
         id="path1217"
         sodipodi:nodetypes="ccscscscccccscscscc" /></g></g><g
     id="g627"><g
       id="g601" /><g
       id="g613"
       transform="matrix(-1,0,0,1,1000,0)"><path
         id="path603"
         style="opacity:1;fill:none;stroke:#000000;stroke-width:20.001;stroke-linecap:round;stroke-linejoin:round"
         d="m 33.66701,335.56235 0,387.87497 c 4.366244,15.45632 14.57381,21.13117 27.98298,31.17599 16.580266,12.42028 34.214783,23.23623 52.41429,33.11108 17.37273,9.42626 35.26028,17.99498 53.23708,26.28305 2.07053,0.9546 4.14225,1.90548 6.2145,2.85352 19.7054,9.01507 41.0705,17.13316 63.79459,24.29004 20.95003,6.59815 43.05514,12.37932 66.07972,17.2932 25.6091,5.46547 52.35567,9.85801 79.9155,13.10838 20.57252,2.4263 41.5982,4.21617 62.94218,5.34081 17.72364,0.93389 35.66676,1.40907 53.75215,1.40907"
         sodipodi:nodetypes="cccsssssssc" /><path
         style="fill:none;stroke:#000000;stroke-width:20.001;stroke-linecap:butt;stroke-linejoin:round"
         d="m 61.64999,754.61331 c 0,-30.12919 -3.73426,-97.15243 27.996835,-92.31686 33.126825,5.04827 25.389365,92.38302 24.417455,125.42794"
         id="path605"
         sodipodi:nodetypes="csc" /><path
         style="fill:none;stroke:#000000;stroke-width:20.001;stroke-linecap:butt;stroke-linejoin:round"
         d="m 167.30136,814.00744 c 0,0 -5.46896,-104.24012 35.47168,-99.65406 48.52587,5.43574 34.53741,126.79762 34.53741,126.79762"
         id="path607"
         sodipodi:nodetypes="csc" /><path
         style="fill:none;stroke:#000000;stroke-width:20.001;stroke-linecap:butt;stroke-linejoin:round"
         d="m 303.39017,858.4442 c 0,0 -3.76377,-109.09417 43.58147,-105.21445 46.86812,3.84063 36.33403,118.32283 36.33403,118.32283"
         id="path609"
         sodipodi:nodetypes="csc" /><path
         style="fill:none;stroke:#000000;stroke-width:20.001;stroke-linecap:butt;stroke-linejoin:round"
         d="M 446.24785,876.89339 C 446.43579,822.11694 451.67739,742.25914 500,742.25914"
         id="path611"
         sodipodi:nodetypes="cc" /></g></g><g
     id="g486"
     transform="matrix(-1,0,0,1,1000,0)"><g
       id="g472" /><g
       id="g484"
       transform="matrix(-1,0,0,1,1000,0)"><path
         id="path474"
         style="opacity:1;fill:none;stroke:#000000;stroke-width:20.001;stroke-linecap:round;stroke-linejoin:round"
         d="m 33.667007,325.12094 3e-6,398.31638 c 4.366244,15.45632 14.57381,21.13117 27.98298,31.17599 16.580266,12.42028 34.214783,23.23623 52.41429,33.11108 17.37273,9.42626 35.26028,17.99498 53.23708,26.28305 2.07053,0.9546 4.14225,1.90548 6.2145,2.85352 19.7054,9.01507 41.0705,17.13316 63.79459,24.29004 20.95003,6.59815 43.05514,12.37932 66.07972,17.2932 25.6091,5.46547 52.35567,9.85801 79.9155,13.10838 20.57252,2.4263 41.5982,4.21617 62.94218,5.34081 17.72364,0.93389 35.66676,1.40907 53.75215,1.40907"
         sodipodi:nodetypes="cccsssssssc" /><path
         style="fill:none;stroke:#000000;stroke-width:20.001;stroke-linecap:butt;stroke-linejoin:round"
         d="m 61.64999,754.61331 c 0,-30.12919 -3.73426,-97.15243 27.996835,-92.31686 33.126825,5.04827 25.389365,92.38302 24.417455,125.42794"
         id="path476"
         sodipodi:nodetypes="csc" /><path
         style="fill:none;stroke:#000000;stroke-width:20.001;stroke-linecap:butt;stroke-linejoin:round"
         d="m 167.30136,814.00744 c 0,0 -5.46896,-104.24012 35.47168,-99.65406 48.52587,5.43574 34.53741,126.79762 34.53741,126.79762"
         id="path478"
         sodipodi:nodetypes="csc" /><path
         style="fill:none;stroke:#000000;stroke-width:20.001;stroke-linecap:butt;stroke-linejoin:round"
         d="m 303.39017,858.4442 c 0,0 -3.76377,-109.09417 43.58147,-105.21445 46.86812,3.84063 36.33403,118.32283 36.33403,118.32283"
         id="path480"
         sodipodi:nodetypes="csc" /><path
         style="fill:none;stroke:#000000;stroke-width:20.001;stroke-linecap:round;stroke-linejoin:round"
         d="M 446.24785,876.89339 C 446.43579,822.11694 451.67739,742.25914 500,742.25914"
         id="path482"
         sodipodi:nodetypes="cc" /></g></g><path
     id="path1357"
     style="opacity:1;fill:none;stroke:#000000;stroke-width:20.001;stroke-linecap:round;stroke-linejoin:round"
     d="M 146.49021,452.25347 C 74.055148,418.92165 33.483496,375.18504 33.48349,330.35764 33.483483,280.86649 82.634195,233.40237 170.12301,198.40685 257.61183,163.41132 376.27213,143.75104 500,143.75104 c 123.72787,0 242.38817,19.66028 329.87699,54.65581 87.48881,34.99552 136.456,82.45964 136.456,131.95079 -10e-6,49.49115 -53.26922,87.50206 -136.456,121.89583 C 616.89524,540.31127 138.64092,507.50109 135.52661,371.12281 145.27,270.55793 396.11073,236.29991 500,237.76994 c 56.28269,0.7964 156.65777,6.90031 231.47007,27.94958 54.13536,15.23158 146.41365,58.94467 133.82217,105.40329 -5.08799,18.77308 -37.80144,42.43259 -82.1737,55.3209 -91.55592,26.59323 -192.1982,27.11579 -205.68927,-15.8566 -36.83977,28.70674 -107.6429,65.58412 -151.91405,34.04232 -29.55501,-26.80003 -9.09504,-82.32952 37.64065,-117.34567 46.73569,-35.01615 113.1282,-32.18874 68.90368,16.09461"
     sodipodi:nodetypes="csssssscsssscczc" /></g><g
   inkscape:groupmode="layer"
   id="layer2"
   inkscape:label="Layer 3"
   style="display:none"><path
     style="display:none;fill:none;stroke:#000000;stroke-width:20.001;stroke-linecap:round;stroke-linejoin:round"
     d="m 664.62624,463.58656 c -57.64562,7.00032 -200.36265,25.68748 -319.36156,-16.39598 70.5656,-7.65822 81.15521,-28.473 90.16412,-58.11576 M 550.51913,316.1286 c -28.89184,-58.504 -120.27376,12.24579 -112.14223,79.73191 8.41125,69.80768 92.77618,46.87558 118.92793,15.26782"
     id="path4449"
     sodipodi:nodetypes="ccccsc" /><path
     d="m 664.62624,463.58656 c -80.95024,10.17499 -152.93845,5.30041 -103.95823,-62.42949 -31.56415,23.43097 -69.10244,46.08894 -102.63363,33.12738 -33.04802,-12.77479 -33.48805,-51.53263 -23.74993,-76.33907 18.84098,-47.99465 92.17513,-95.98066 108.57111,-39.01773"
     style="display:none;fill:none;stroke:#000000;stroke-width:20.001;stroke-linecap:round;stroke-linejoin:round"
     id="path1355" /></g>
</svg>
