<?xml version="1.0" encoding="utf-8"?>
<!-- Generator: Adobe Illustrator 22.0.1, SVG Export Plug-In . SVG Version: 6.00 Build 0)  -->
<svg version="1.1" id="Layer_1" xmlns="http://www.w3.org/2000/svg" xmlns:xlink="http://www.w3.org/1999/xlink" x="0px" y="0px"
	 viewBox="0 0 1123.5 1217.3" style="enable-background:new 0 0 1123.5 1217.3;" xml:space="preserve">
<g>
	<path fill="#00076b" fill-opacity="0.1" d="M522.6,1187.5c-1.5-3.9-3-7.9-4.3-11.9c-4.9-15.2-9.1-30.3-12.5-44.9c-5.5-23.6-8.8-47.7-10-71.6
		c-1.4-29.4,0.1-58.9,4.5-87.8c3.7-24.6,9.6-49.5,17.3-73.9c11.4-35.9,27.5-71.9,47.6-106.9c23.5-41,51.1-78,82-110
		c19.3-20.1,36.6-38.4,52.4-58.8c26.1-33.5,46.4-66.7,61.8-101.4c18.4-41.2,29.4-79.8,33.9-118c6.1-53.3,5.7-96.8-1.3-137
		c-1.7-9.4-3.8-18.9-5.9-28.1l-0.1-0.6c-1.2-5.1-2.5-11.1-3.8-17c-4.8-22.7-19.4-36.5-34.9-51.1l-2.6-2.4c-1.1-1-2.1-2-3.2-3
		c-1-1-2.1-1.9-3.1-2.9l-0.1-0.1c-3.8-3.2-8.1-4.1-11.1-2.4c-1.9,1.1-4.9,4.2-3.4,12.6l0.7,5.1c5,38.9,9.7,75.6,8.5,114.5
		c-1.4,47.7-8.8,93.5-21.8,136.3c-10.7,35.2-25,69.5-42.6,101.8c-19.1,35.2-42.5,67.8-71.5,99.6c-16.3,17.9-31.7,36.6-45.9,55.5
		c-18.9,25.1-36.4,53.7-51.9,84.9c-12.5,25-22.3,48.5-30.1,71.8c-12.3,37-20.4,71.8-24.6,106.2c-3.3,26.8-4.8,50.9-4.7,73.9
		c0.1,14,0.8,28.1,2,43.2c0.3,3.8,2.2,14.4,4.2,25.7c1,5.3,2,11.3,2.9,16.3c-11.5-25-39.4-90.7-46.3-120.4
		c-7.1-30.6-10.9-60.5-11-88.7c-0.2-18.2,0.8-37.4,2.9-57.2c2-18.2,5.1-36.8,9.2-55.2c9.3-41.3,23.7-80.7,42.8-117.1
		c11.8-22.4,25.4-45.5,41.7-70.5c11.4-17.5,24.6-33.9,37.1-49c7.3-8.9,15.2-17.8,22.8-26.4l1.1-1.2c8.2-9.2,17-19.1,25.3-29.2
		c19.8-24.2,37.6-51.5,52.9-81.4c18.8-36.6,32.7-74.6,41.3-113c5.3-23.9,8.7-49.6,10.4-78.5c0.6-10.1,0.2-20.5-0.2-29.6
		c-0.2-4.5-0.4-9.2-0.5-13.6c-0.4-22.9-4.2-45.4-7.8-67.1l-0.3-1.8c-3.3-19.3-17.1-32.3-30.5-44.9c-2.2-2-4.4-4.1-6.6-6.2
		c-3.5-3.4-7.2-7-10.9-10.5c-3.1-2.9-7.4-3.5-11.2-1.7c-3.6,1.7-5.9,5.2-5.7,8.9c0.7,11.8,1.8,23.7,2.9,35.2
		c0.5,5.3,1,10.5,1.5,15.8c8.2,92.1-8.3,183.7-47.8,265.1c-7,14.5-15.6,30.4-26.9,50c-12.1,20.9-26.6,41.2-44.6,62.2
		c-4.9,5.6-10.4,11.9-17.5,19.7C468.5,506,463,512.2,458,518c-17.5,20.3-34.1,42.9-50.7,69.1c-23.8,37.8-43.3,78.7-57.8,121.4
		c-13.2,39-21.2,74.4-24.4,108c-2.6,27.8-4.2,48-4.7,68.8c-0.4,16.8,1.1,33.8,2.6,50.2l0.1,1.1l0.1,0.7c0.6,6.5,3.7,19.3,6.8,31.8
		c0.6,2.6,1.3,5.2,1.9,7.7c-8.6-16.9-22.6-45-26.6-55c-20.9-51.6-32.1-105.2-33.3-159.3c-0.3-11.7,0.2-24.2,1.8-41.9
		c1.5-16.5,3-32.7,6.1-48.9c8.1-43.5,22.4-86.8,42.5-128.5c13.5-28,29-54.8,46.1-79.8c14.6-21.3,31.6-40.7,48-59.5
		c5.3-6.1,10.9-12.4,16.3-18.8c42.6-50.1,74.9-102.2,95.9-154.8c17.2-43.1,27.5-90.3,30.6-140.2c0.9-16.2,0.3-32.9-0.3-47.5
		c0-12.2-1.5-24.5-2.9-34.9l0-0.1c-0.8-3.8-2.9-6.4-6-7.3c-4.2-1.3-9.4,0.7-14.2,5.4l-0.1,0.1c-1.9,2.2-3.8,4.2-5.9,6.2l-1.3,1.3
		c-4.5,4.6-9.1,9.2-13.7,13.7c-4.6,4.6-9.2,9.2-13.7,13.8l-83,83c-53.4,53.4-108.6,108.6-162.8,162.9
		c-57,57-113.2,113.6-170.7,171.4c-8.5,8.5-15.6,16.3-22.1,24.4c-22.4,27.8-39.1,59.1-49.7,93.1c-7,22.5-11.3,47.1-12.6,73
		c-0.9,17.2,0.4,35.7,4,56.7c4.2,24.9,11.8,49.2,22.6,72.2c13.7,29.5,33,56.5,58.9,82.6l6.9,6.9c20.1,20.2,40.4,40.6,60.9,61.1
		c42.9,43,87.2,87.5,130.6,131c28.4,28.4,57.7,57.7,88.1,87.5c20.1,19.6,44,36.1,71,48.8c14,6.7,28.4,12.1,42.8,16.1
		c2,0.5,11.9,2.4,22.4,4.3l5.2,1c1.5,0.3,2.8,0.4,4,0.4c4.9,0,7.6-2.2,8.9-3.7c2.3-2.7,3-6.5,1.7-10
		C526.6,1198.1,524.6,1192.7,522.6,1187.5z M255.3,719.1c-1.6,17.8-2.2,31.4-1.9,43.9c1.2,56.3,12.9,112.2,34.6,166
		c6,14.9,14.2,28.3,22.1,41.3l0.4,0.7c0.7,1.2,1.4,2.4,2.2,3.6c2.2,3.6,4.5,7.4,6.6,11.1c3.3,5.8,6.8,11.5,10.2,17l1.5,2.5
		c2.9,4.6,9.3,6.8,14.6,5c4.9-1.7,7.4-6.3,6.8-12.3l0-0.2c-1.5-6.7-3.1-13.9-4.4-21.3l-0.4-2.4c-2.2-13.4-4.3-26.1-5.4-38.7
		l-0.2-1.9c-1.5-15.8-3-32.1-2.6-47.9c0.5-20.2,2.1-40,4.7-67.5c3.1-32.4,10.8-66.3,23.5-103.6c14-41.3,32.8-80.8,55.9-117.4
		c15.9-25.3,32-47.1,49-66.9c5.2-5.9,10.9-12.3,17-19.1l0.8-0.9c5.6-6.2,11.5-12.6,17-19.1c18.7-21.8,33.9-43.1,46.6-65
		c11-18.9,19.8-35.2,27.6-51.2c16.1-33.3,28.6-68.4,37.1-104.3c4.5-18.9,7.7-38.7,10.5-56.2l0.7-4.2c1.1-6.2,1.4-12.5,1.8-18.5
		l0.1-2.3c0.1-2.4,0.2-5,0.4-7.4c0.2-2.6,0.4-5.3,0.6-8l0.2-1.8c0.6-6.7,1.1-13.6,1.1-20.6c-0.1-13.4-0.9-27.4-1.5-38.6l-0.3-5.7
		c-0.5-9.1-1.2-17.7-2.1-25.8c-0.3-2.1-0.5-4.3-0.8-6.5c5,5.1,10.2,10.2,15.7,15.1c4.9,4.4,7.5,9.7,9.1,18.4l0.4,2.2
		c3.5,20.9,7.1,42.5,7.5,63.9c0.1,5,0.3,10.1,0.5,14.1c0.4,9.4,0.7,18.7,0.2,27.7c-1.6,27.9-4.9,52.6-10.1,75.5
		c-8.2,36.9-21.6,73.4-39.6,108.4c-14.8,28.8-31.9,55-50.8,78.1c-8,9.8-16.6,19.5-24.7,28.6c-8,9-16.5,18.6-24.5,28.3
		c-15.7,19.1-27.5,34.3-38.2,50.8c-17.1,26.4-31.1,49.9-42.7,72.1c-20.1,38.4-35,79.4-44.5,121.8c-4.3,19.3-7.5,38.6-9.4,57.3
		c-2.2,20.2-3.2,40.2-3,59.4c0.3,30.3,4.2,61.5,11.6,92.8c7,30.1,16.8,59,29,85.9c3.8,8.5,8.7,16.2,13.4,23.8l0.1,0.2
		c1.4,2.1,2.7,4.2,4,6.3c0.5,0.8,1,1.6,1.5,2.4c4.5,7.5,9.1,15.1,13.6,22.6l3.1,5.2l0.1,0.2c4.1,5.2,10.3,7.3,15.4,5.1
		c4.8-2,7.2-7.1,6.4-13.2l-0.3-1.7c-2-9.6-3.9-18.7-5.4-28c-2-11.8-3.5-24-4.5-36.2c-1.2-14.9-1.8-28.6-1.9-41.7
		c-0.1-21.8,1.4-45.2,4.6-71.5c4-33.2,11.7-66.6,23.7-102.4c7.3-21.9,16.8-44.6,29.1-69.3c15-30.2,31.9-57.8,50.1-82
		c14.1-18.9,29.2-37.1,44.8-54.2c29.8-32.7,54.1-66.5,74.2-103.4c18.3-33.7,33.2-69.2,44.2-105.4c8.8-29.1,14.3-53.7,17.1-77.3
		c1.7-14.1,3.8-32.7,5-51.9c1.1-19.5,1.4-34.3,0.8-48c-0.6-14.9-2.2-29.8-3.8-44.2l-0.2-1.4c-0.1-1.2-0.3-2.5-0.4-3.7
		c-0.1-1.2-0.3-2.5-0.4-3.7c-0.2-2.2-0.5-4.4-0.7-6.6c0.8,0.7,1.6,1.4,2.5,2.1c7.4,5.9,11.7,13.8,14.3,26.5
		c1.3,6.1,2.6,12.2,3.8,17.3c0.4,1.7,0.8,3.4,1.1,5.2c1.6,7.4,3.3,15,4.6,22.5c1.7,10.3,2.7,21.2,3.7,31.7l0.5,5.5
		c0.1,0.9,0.2,1.7,0.2,2.6c0.1,0.9,0.2,1.8,0.3,2.7l0.1,1.1c0.8,8.4,1.5,16.3,1.1,24.1c-1.2,25.4-2.7,45.1-4.8,63.9
		c-4.2,36.2-14.8,73-32.3,112.4c-14.9,33.3-34.3,65.1-59.5,97.4c-16.1,20.6-34.1,39.6-51.2,57.2c-31.6,32.7-60.2,71-84.8,113.7
		c-20.7,36.1-37.3,73.3-49.3,110.7c-8,24.8-14,50.7-18,76.8c-4.5,29.8-6.1,60.6-4.7,91.6c1.1,25.2,4.6,50.4,10.3,75.1
		c5,21.7,11.1,42.4,18.1,61.7c-15.8-3.4-31.7-8.6-48.6-16c-27.2-11.8-51.3-27.9-71.6-47.8c-30.4-29.8-61-60.4-88-87.4
		c-65.4-65.5-129.8-130.1-191.5-192.1l-6.9-6.9c-24.4-24.6-42.5-49.9-55.1-77.1c-10-21.6-17.1-44.2-21-67.4
		c-3.3-19.5-4.6-36.6-3.8-52.5c1.3-24.6,5.2-46.9,11.8-68.3c10-31.8,25.6-61,46.4-86.8c5.4-6.8,11.8-13.8,20.8-22.8
		c60.2-60.6,114.7-115.3,170.8-171.4c27.3-27.4,54.6-54.7,81.9-82c27.2-27.2,54.4-54.4,81.5-81.6l1.1-1.1
		c34.9-34.9,71-71,106.5-106.5c0.2,4.9,0.4,9.8,0.6,14.7c0.6,14.3,1.2,30.4,0.3,45.6c-3,47.8-12.9,93-29.4,134.3
		c-11.8,29.4-22.6,51-34.8,70.1c-14.7,22.7-31,45.3-43.5,62.5c-6.7,9.2-15,17.9-21.7,24.9c-20.8,21.7-40.4,45.9-58.1,71.8
		c-17.7,25.9-33.7,53.6-47.6,82.4c-21,43.5-35.8,88.3-44.2,133.2C258.3,686.2,256.6,703.9,255.3,719.1z"/>
	<path fill="#00076b" fill-opacity="0.1" d="M1050.3,467.9c-44.9-45.4-90.9-91.4-135.3-135.8c-4.8-4.8-9.5-9.5-14.3-14.3c-12.7-12.8-25.9-26-39.3-38.5l-0.1-0.1
		c-6.6-5.4-11-4.1-13.1-2.8c-3.8,2.3-5.5,7.9-4.2,14c25.3,112.1,12.8,232.1-34.4,329.2l-1.8,3.8c-15.8,32.8-32.2,66.8-56.4,93.7
		c-26.2,29.2-54.1,60.8-80.1,94.2c-60,76.9-96,145-113.6,214.3c-14.2,55.6-20.1,113.3-17.6,171.5c0.5,14.7,10.9,20.1,17.3,20.1
		c1.2,0,2.5,0,3.8,0c3.2,0,6.7-0.1,10.4-0.2h0c65.4-2.9,128.8-28.5,178.3-72.1c42.6-37.2,83-79.6,122-120.6
		c19.7-20.7,40-42,60.3-62.3c21.6-21.7,43.7-43.7,65-65c10.9-10.9,21.8-21.8,32.7-32.7c16.4-16.5,33.7-34.5,47.8-55.8
		c15.4-23.1,27.2-48.8,35.1-76.3C1139.7,639.3,1114.5,533,1050.3,467.9z M873.2,462.8c1.3-8.5,2-17,2.1-25.1c0-1.9,0.1-3.8,0.1-5.7
		c0-1.9,0-3.8,0.1-5.7c0.3-17.1,0.5-35.3-0.3-53.4c-0.9-19.6-3-39.2-6.2-58.3l31.7,31.7c40.2,40.2,87.7,87.8,135.2,135.8
		c18.3,18.6,33.2,41.3,45.4,69.3c8.1,18.5,14,37.2,17.5,55.8c1.7,8.9,2.6,17.9,3.5,26.6c0.6,5.6,0.9,12.2,1,20.5
		c0.3,24.7-3,49.1-9.7,72.6c-7.4,25.5-18.3,49.3-32.5,70.8c-13.2,19.9-30.3,37.6-45.3,52.7c-21.6,21.6-43.6,43.5-64.8,64.8
		c-11,11-21.9,21.9-32.9,32.9l-29.5,29.5C839.1,1027,788,1078.1,737.8,1128c-14,14-31.4,26.6-53.3,38.7
		c-20.8,11.5-43.7,20-68.2,25.3c-10.3,2.1-20.8,3.5-32.3,4.3c-7.1,0.5-14.4,0.4-22.1,0.3l-1.6,0c-0.2-3.3-0.5-7.1-0.6-10.7
		c0-1,0-2-0.1-3c0-0.9,0-1.9,0-2.8c-0.2-10.8-0.3-22.4,0.2-33.6c0.5-9.8,1.5-20.1,2.5-29.8l1.2-12.2c2.5-27.3,8.5-56.2,19-91
		c5.4-18.2,12.6-35.8,20.2-54.5c13.5-33,31-64.6,51.9-94c13-18.2,27.4-36.8,44.2-56.8c8.6-10.3,18.2-20.3,27.5-29.9l0.2-0.2
		c4.7-4.8,9.4-9.8,13.6-14.3c20.1-21.5,37.9-45.3,53-70.8c11.4-19.4,22.7-40.5,34.4-64.6c16.5-33.9,28.5-70.6,36.8-112.2
		c3.3-16.7,5.9-33.6,8.7-51.6L873.2,462.8z"/>
</g>
</svg>
