<svg id="SuperSuit" xmlns="http://www.w3.org/2000/svg" width="1000" height="1000" viewBox="0 0 1000 1000">
  <defs>
    <style>
      .cls-1 {
        fill-rule: evenodd;
      }
    </style>
  </defs>
  <path id="SS_Vector" class="cls-1" d="M872,105c-11.1,4.967-12.441,10.722-18,19-12.265,18.265-27.706,35.145-41,53-3,2.666-5.352,6.458-8,9-10.813,12.571-20.282,21.138-31,34-1.356,1.517-17.622,19.313-19,21-22.522,25.637-32.3,37.047-57,61-2.853,2.767-6.115,6.174-9,9-9.086,8.9-17.96,18.02-28,26-4.2,3.341-6.916,6.993-13,9-11.93-31.015-49.41-49.853-83-56-9-1.647-22.889-3.292-32-4H516c-18.674,0-45.808.94-63-2-33.636-5.752-58.777-9.561-87-21a285.027,285.027,0,0,1-35-17c-5.574-3.275-13.046-7.291-19-11-12.2-7.6-27.258-22.132-53-19-6.028.733-12.672,12.963-16,18-24.108,36.489-34.185,79.749-8,123,6.851,11.316,30.053,38.8,26,56-6.292,26.7-36.943,66.677-24,97,6.5,15.223,22.968,29.295,36,34,18.754-7.521,20.668-14.771,32-26,13.958-13.831,32.038-27.594,52-35,13.208-4.9,33.249-3.178,33-19-3.366-10.482-27.033-2.185-38,2-28.811,10.994-62.9,34.661-78,59-1.239-.79-1.895-1.21-3-2a55.934,55.934,0,0,1-11-12c-18.359-25.474-1.249-43.907,8-65,2.357-5.375,7.221-15.82,9-22,1.654-5.746,5.584-15.177,3-25-8.138-30.939-53.235-66.427-42-110,2.195-8.511,4.89-17.83,8-25,4.325-9.972,12.069-26.763,21-32,10.114,0.081,23.185,9.423,32,15,3.17,2.006,6.007,3.992,9,6,3.733,2.5,8.149,4.657,12,7,18.458,11.23,38.962,19.533,60.36,27.12C401.9,294.755,426.331,298.357,451,302c11,0.333,23,.667,34,1,12.66,1.179,37.81.975,55,1a20.116,20.116,0,0,1-3,2c-9.7,6.42-18.527,11.463-27,18a432.69,432.69,0,0,0-54,50c-10.7,11.731-22.329,22.149-29,38-10.322,24.524,13.33,57.887,22,72,2.045,3.329,12.106,18.933,12,19-8.251,4.07-20.494,11.473-27,17-13.808,11.731-36.41,36.076-31,63,1.387,6.9,2.579,15.011,5,21,3.7,9.144,9.624,18.461,15,26-5.4,6.7-15.654,17.174-22,25-14.878,18.346-28.866,34.29-44,53-2.734,3.075-5.645,6.49-9,10-22.848,24.194-43.2,49.4-66,74-11.019,11.887-22.922,23.289-34,35-11.592,12.254-22.627,25.583-34,37-1.685,1.692-20.109,20.092-22,22-5.113,5.159-41.955,41.888-67,65-2.148,3.689-1.567,6.27-1,9a6.36,6.36,0,0,0,3,3c1.838,1.238,4.082,1.667,8,1,7.688-3.4,10.587-8.2,16-13,3.84-3.409,9.268-8.388,13-12,15.393-14.9,29.007-28.339,45-45,2.6-2.934,8.552-8.4,11-11,10.616-10.817,19.34-18.539,28-30,2.875-3.395,6.1-6.911,9-10,7.347-7.425,13.648-14.546,21.93-23,5.07-4.668,9.476-9.811,14.239-14.449C312.84,783.944,330.255,764.821,349,744c3.847-4.105,7.61-8.732,11-13,15.973-21.149,33.785-39.778,51-60,7.482-8.788,8.924-10.458,16-19,1.076-1.17,5.049-6.063,6-7,7.694,6.9,14.521,15.4,22,22a144.842,144.842,0,0,0,42,26c15.076,5.876,36.724,11.435,52,15a97.474,97.474,0,0,0,20,3c2.023,0-26.51,14.687-45,25a1066.633,1066.633,0,0,1-141,66c-19.784,7.487-39.95,14.134-58,22-6.4,2.79-11.988,3.173-17,9-3.434,3.435-2.354,8.461,2,11,5.86,2.951,16.717-1.355,21-3,16.78-6.443,34.3-12.256,52-19,57.508-21.912,111.729-45.937,161-76,12.824-7.825,25.578-13.776,38-21,7.115-4.138,16.285-8.326,21-15,0.6-2.839-.008-4.571-1-7-4.2-4.278-10.951-5.558-17-7-4.359-.886-7.749-1.432-12-2-23.257-4.264-49.7-8.955-71-18-28.973-12.3-53.288-37.1-69-63-20-32.978-13.406-57.1,11-78,3.336-2.857,21.564-14.011,27-17a129.686,129.686,0,0,1,13,15c3.333,3,6.667,9,10,12,13.578,14.471,25.432,27.77,41,40,4.582,3.6,21,20.716,31,14,11.6-7.785-8-19.136-12-22-13.207-9.47-28.782-24.061-40-36-8.816-9.382-17.852-21.7-26-31,4.8-2.586,7.859-5.036,17-9,11.01-4.775,22.514-8.57,33-13,52.44-22.153,115.445-46.921,115-121,11.563-9.234,23.594-19.953,34.322-29.7,4.309-4.112,7.7-7.5,11.678-11.3,23.416-20.3,44.879-45.979,66-69,7.226-7.876,16.609-17.927,24-26,15.44-16.865,30.233-32.4,44-51,11.473-15.5,24.268-29.182,35-46,5.27-8.259,12.086-12.447,11-26C877.949,105.582,873.716,104.81,872,105ZM664,163c-21.462-5.024-47.049.846-56,14-27.366,40.217-10.8,103.449,31,115,34.058,9.412,54.2-21.523,60-45a108.738,108.738,0,0,0,2-19,64.261,64.261,0,0,0-2-20c-3.563-13.762-11.7-31.6-22-39A39.646,39.646,0,0,0,664,163Zm-8,17c2.362,0.814,6.192,1.911,9,4,5.053,3.759,10.821,15.072,13,22a85.867,85.867,0,0,1,3,22c-0.87,25.781-7.369,47.3-34,47a24.61,24.61,0,0,1-10-4c-7.767-5.078-16.281-16.067-20-25-8.19-19.671-1.9-51.758,12-61C635.56,180.639,645.279,178.908,656,180ZM579,313c4.638,1.059,8.267,1.426,12,3,14.459,6.1,29.172,17.174,37,30,11.059,18.12,6.607,48.779-4,64-16.878,24.222-48.794,44.637-74,54-9.08,3.373-17.376,6.383-26,10-14.181,5.948-34.008,14.592-47,21-3.719-5.378-8.605-12.527-12-18-6.448-10.4-11.494-18.567-17-30-2.5-5.2-5.859-12.775-5-21,1.812-17.348,13.349-24.239,23.9-35.994A381.3,381.3,0,0,1,528,335C542.864,324.336,552.827,313.054,579,313Z"/>
</svg>
