<?xml version="1.0" encoding="UTF-8" standalone="no"?>
<!-- Created with Inkscape (http://www.inkscape.org/) -->

<svg
   width="1000"
   height="1000"
   viewBox="0 0 264.58333 264.58333"
   version="1.1"
   id="svg5"
   sodipodi:docname="tinyscaler.svg"
   inkscape:version="1.1.1 (3bf5ae0d25, 2021-09-20)"
   inkscape:export-filename="F:\Vicky\Desktop\Misc\tinyscaler100.png"
   inkscape:export-xdpi="9.5999994"
   inkscape:export-ydpi="9.5999994"
   xmlns:inkscape="http://www.inkscape.org/namespaces/inkscape"
   xmlns:sodipodi="http://sodipodi.sourceforge.net/DTD/sodipodi-0.dtd"
   xmlns="http://www.w3.org/2000/svg"
   xmlns:svg="http://www.w3.org/2000/svg">
  <sodipodi:namedview
     id="namedview7"
     pagecolor="#ffffff"
     bordercolor="#666666"
     borderopacity="1.0"
     inkscape:pageshadow="2"
     inkscape:pageopacity="0.0"
     inkscape:pagecheckerboard="0"
     inkscape:document-units="mm"
     showgrid="false"
     units="px"
     inkscape:snap-global="false"
     inkscape:zoom="0.8359833"
     inkscape:cx="605.27525"
     inkscape:cy="764.96743"
     inkscape:window-width="1304"
     inkscape:window-height="729"
     inkscape:window-x="62"
     inkscape:window-y="0"
     inkscape:window-maximized="0"
     inkscape:current-layer="layer1" />
  <defs
     id="defs2" />
  <g
     inkscape:label="Capa 1"
     inkscape:groupmode="layer"
     id="layer1">
    <g
       id="g26487"
       transform="translate(-16.700813,-0.25613541)">
      <path
         style="fill:none;stroke:#000000;stroke-width:4;stroke-linecap:round;stroke-linejoin:miter;stroke-miterlimit:4;stroke-dasharray:none;stroke-opacity:1"
         d="m 108.58017,38.756335 c 13.58152,17.664682 17.58473,23.85909 17.49747,35.716407 -0.10732,14.584365 -7.69011,28.240858 -21.15294,53.386328 -23.171863,40.02511 -29.514591,87.2487 -20.887985,118.88395 3.14059,11.51708 5.345187,15.6534 5.345187,15.6534"
         id="path859"
         sodipodi:nodetypes="cscsc" />
      <path
         style="fill:none;stroke:#000000;stroke-width:4;stroke-linecap:round;stroke-linejoin:miter;stroke-miterlimit:4;stroke-dasharray:none;stroke-opacity:1"
         d="M 167.84792,2.4731639 C 199.04694,32.153272 192.94344,57.431744 188.76,84.490096 179.70136,130.73472 160.52844,170.91148 187.70345,203.0525"
         id="path863"
         sodipodi:nodetypes="ccc" />
      <path
         style="fill:#000000;fill-opacity:0;stroke:#000000;stroke-width:4;stroke-linecap:square;stroke-linejoin:miter;stroke-miterlimit:4;stroke-dasharray:none;stroke-opacity:1"
         d="m 183.23572,117.90163 c 2.88298,0.29807 5.5319,0.65292 7.95813,1.05911 42.46887,7.10994 16.7106,29.95015 -16.25588,39.37919 -35.15895,10.03175 -89.969784,14.75941 -113.077709,26.63541 -19.159019,9.84651 -25.30345,25.28645 -0.857226,43.04255 4.765014,3.46099 12.988913,8.14232 19.532509,10.03688"
         id="path867"
         sodipodi:nodetypes="cscssc" />
      <path
         style="fill:#000000;fill-opacity:0;stroke:#000000;stroke-width:4;stroke-linecap:square;stroke-linejoin:miter;stroke-miterlimit:4;stroke-dasharray:none;stroke-opacity:1"
         d="m 112.7968,108.62833 c -4.85189,-0.64481 -9.27284,-2.387 -12.53381,-3.50246 -31.125659,-10.646905 5.308,-40.434806 15.55554,-45.496526 33.86695,-20.696152 77.11105,-25.307471 88.26958,-20.431404 9.51648,5.258403 -3.27076,10.526245 -9.55197,15.33179"
         id="path871-5"
         sodipodi:nodetypes="csccc" />
    </g>
    <path
       id="path26522-8"
       style="fill:none;stroke:#000000;stroke-width:4;stroke-linecap:round"
       d="m 219.3149,131.30794 c 1.61505,7.01212 11.87136,11.02473 22.70423,8.14082 15.93038,-4.24099 21.82818,-18.60884 20.22621,-20.55527 -1.40938,-1.71241 -15.15067,-7.35395 -26.07482,-4.83788 -10.92414,2.51608 -18.47067,10.24021 -16.85562,17.25233 z"
       sodipodi:nodetypes="sssss" />
    <path
       id="path26522-8-5"
       style="fill:none;stroke:#000000;stroke-width:4;stroke-linecap:round"
       d="M 44.319633,82.049012 C 42.041675,88.874636 31.448752,91.888446 20.941179,87.982193 5.4891502,82.237804 0.99182564,67.371962 2.7725266,65.587582 4.3391384,64.017742 18.55679,59.715601 29.190399,63.264419 c 10.6336,3.548829 17.407192,11.958972 15.129234,18.784593 z"
       sodipodi:nodetypes="sssss" />
  </g>
</svg>
