<svg width="300" height="300" viewBox="0 0 300 300" fill="none" xmlns="http://www.w3.org/2000/svg">
<path d="M137.338 0.10912C136.449 0.227612 133.417 0.59386 130.605 0.911633C127.788 1.22941 122.58 2.10194 119.025 2.85059C115.47 3.59386 110.499 4.79494 107.984 5.51127C105.463 6.233 100.616 7.83264 97.2119 9.06603C93.8026 10.2994 87.2586 13.1863 82.6697 15.4754C78.0755 17.7644 71.0468 21.8201 67.0504 24.4808C63.0486 27.1414 57.7164 30.9709 55.2012 32.9852C52.6805 34.9996 47.4615 39.8093 43.6051 43.6711C39.7434 47.5274 34.9337 52.7465 32.9193 55.2671C30.9049 57.7824 27.0755 63.1145 24.4148 67.1163C21.7541 71.1127 17.9247 77.6567 15.9049 81.6585C13.8906 85.6549 11.1383 91.7141 9.79721 95.1235C8.4561 98.5274 6.51714 104.226 5.48303 107.781C4.45431 111.335 3.10781 116.786 2.49919 119.899C1.88518 123.007 1.0719 127.612 0.689494 130.132C0.242456 133.068 -0.00529998 140.226 8.60117e-05 150.061C0.00547201 162.136 0.21014 166.676 0.958793 171.335C1.48124 174.594 2.5315 180.045 3.28554 183.454C4.04497 186.858 5.83312 193.159 7.2658 197.457C8.69847 201.75 11.176 208.176 12.7703 211.73C14.3699 215.285 17.2083 220.86 19.0773 224.118C20.9462 227.377 24.3232 232.687 26.5854 235.919C28.8475 239.15 32.8978 244.364 35.5907 247.499C38.2891 250.633 42.7703 255.389 45.5548 258.055C48.3448 260.727 52.4381 264.384 54.6626 266.183C56.8816 267.976 60.3987 270.675 62.4723 272.172C64.5459 273.669 68.5423 276.298 71.3592 278.01C74.1706 279.718 79.2604 282.513 82.6697 284.215C86.0737 285.917 91.3466 288.303 94.3843 289.509C97.422 290.721 102.63 292.536 105.964 293.549C109.298 294.556 114.932 295.989 118.487 296.727C122.041 297.465 127.131 298.396 129.797 298.795C132.975 299.274 139.831 299.522 149.725 299.522C159.619 299.522 166.476 299.274 169.654 298.795C172.32 298.396 177.409 297.465 180.964 296.727C184.519 295.989 190.153 294.556 193.487 293.549C196.821 292.536 202.029 290.721 205.067 289.509C208.104 288.298 213.856 285.648 217.858 283.623C221.855 281.597 228.399 277.763 232.4 275.102C236.397 272.441 241.729 268.612 244.25 266.592C246.765 264.572 251.882 259.887 255.609 256.176C259.341 252.47 264.409 246.885 266.882 243.777C269.348 240.664 273.124 235.456 275.268 232.197C277.411 228.939 280.632 223.483 282.42 220.079C284.208 216.669 286.74 211.337 288.049 208.229C289.352 205.116 291.404 199.542 292.6 195.842C293.801 192.136 295.427 186.201 296.219 182.646C297.005 179.091 298.05 173.517 298.54 170.258C299.203 165.874 299.435 160.547 299.44 149.791C299.445 138.465 299.23 133.881 298.481 129.055C297.953 125.646 296.903 120.071 296.149 116.667C295.4 113.258 293.801 107.441 292.6 103.741C291.404 100.036 289.352 94.461 288.049 91.3533C286.74 88.2402 284.391 83.2743 282.824 80.312C281.257 77.3497 278.623 72.7447 276.97 70.0786C275.321 67.4125 272.241 62.926 270.129 60.1145C268.013 57.2976 264.172 52.5957 261.593 49.6549C259.018 46.7195 254.359 42.0068 251.251 39.1899C248.138 36.373 242.65 31.8703 239.047 29.1827C235.444 26.4951 229.508 22.5472 225.851 20.4036C222.194 18.2599 215.93 15.0122 211.934 13.1863C207.932 11.3605 201.146 8.71056 196.853 7.29943C192.555 5.89368 186.253 4.12169 182.849 3.37303C179.44 2.61899 174.108 1.60643 171 1.12169C167.251 0.534614 160.901 0.179138 152.149 0.0606461C144.889 -0.0363019 138.226 -0.0147579 137.338 0.10912Z" fill="#2BD7B0"/>
<path d="M121.718 62.856C119.348 63.1415 114.862 63.9871 111.754 64.7411C108.641 65.4898 104.036 66.9548 101.521 67.9943C99.0001 69.0284 94.7613 71.1074 92.0952 72.6101C89.4292 74.1128 85.6697 76.4503 83.7469 77.8076C81.8188 79.1594 77.5746 82.9458 74.3053 86.2151C70.5513 89.9691 67.0396 94.1487 64.7721 97.5472C62.8008 100.51 60.097 105.233 58.7667 108.05C57.431 110.861 55.6105 115.348 54.711 118.014C53.817 120.68 52.5351 125.285 51.8672 128.247C50.7954 132.976 50.65 135.115 50.65 145.752C50.65 156.389 50.7954 158.527 51.8672 163.256C52.5351 166.219 53.817 170.824 54.711 173.49C55.6051 176.156 57.5495 180.879 59.0306 183.992C60.5118 187.1 63.5818 192.432 65.8493 195.842C68.7362 200.177 71.9139 203.996 76.4543 208.569C80.0198 212.161 84.9965 216.61 87.5171 218.452C90.0324 220.294 94.3951 223.111 97.2119 224.705C100.023 226.299 104.995 228.685 108.253 230.016C111.512 231.341 116.478 233.043 119.295 233.802C122.106 234.556 126.593 235.536 129.259 235.978C131.925 236.414 137.499 236.926 141.646 237.109C146.079 237.308 151.627 237.19 155.111 236.829C158.37 236.49 163.46 235.714 166.422 235.106C169.384 234.497 174.35 233.145 177.463 232.106C180.571 231.061 186.027 228.799 189.582 227.08C193.137 225.357 198.226 222.492 200.892 220.72C203.558 218.942 208.04 215.565 210.856 213.212C213.668 210.858 217.767 207.018 219.953 204.675C222.146 202.337 225.323 198.599 227.014 196.38C228.706 194.156 231.361 190.402 232.917 188.032C234.469 185.662 237.162 180.815 238.896 177.26C240.636 173.705 243.011 167.888 244.174 164.334C245.338 160.779 246.819 155.323 247.454 152.215C248.095 149.102 248.79 144.68 248.995 142.38L249.366 138.201L224.591 138.212C223.147 147.185 221.984 152.334 221.074 155.447C220.163 158.554 218.241 163.526 216.803 166.488C215.365 169.45 213 173.689 211.546 175.913C210.086 178.133 207.07 182.134 204.84 184.8C202.605 187.466 198.743 191.377 196.26 193.483C193.772 195.594 189.797 198.583 187.427 200.129C185.058 201.675 181.056 203.915 178.54 205.111C176.02 206.312 171.9 207.966 169.384 208.784C166.864 209.608 162.625 210.723 159.959 211.267C156.334 212 152.666 212.247 145.417 212.253C137.968 212.253 134.661 212.021 131.144 211.256C128.623 210.707 124.745 209.651 122.526 208.908C120.302 208.17 116.548 206.651 114.178 205.531C111.808 204.411 107.564 201.966 104.752 200.097C101.935 198.233 97.4435 194.511 94.7613 191.829C91.9767 189.045 88.3466 184.644 86.2999 181.569C84.334 178.606 81.7703 174.001 80.6069 171.335C79.4489 168.669 78.0001 164.668 77.3861 162.448C76.7775 160.224 75.9803 156.47 75.6195 154.1C75.2048 151.386 75.0755 147.098 75.2694 142.52C75.4902 137.177 75.948 133.822 76.9821 129.863C77.7577 126.901 79.4274 122.296 80.6985 119.63C81.9642 116.964 84.0701 113.204 85.3735 111.282C86.6823 109.353 89.5746 105.874 91.8098 103.547C94.0396 101.22 97.8044 98.0212 100.174 96.4377C102.544 94.8542 106.422 92.716 108.792 91.6765C111.162 90.6424 115.282 89.2474 117.948 88.5795C121.734 87.6316 124.325 87.3677 129.797 87.3677C135.269 87.3677 137.855 87.6316 141.646 88.5795C144.312 89.2474 148.433 90.7178 150.803 91.8381C153.172 92.9637 156.668 95.0697 158.569 96.5239C160.476 97.9727 163.341 100.617 164.941 102.395C166.54 104.172 168.668 106.957 169.67 108.589C170.672 110.215 172.196 113.49 173.063 115.86C173.935 118.229 174.943 121.983 175.314 124.208C175.713 126.621 175.847 129.933 175.648 132.422C175.46 134.716 174.706 138.475 173.973 140.77C173.106 143.484 171.549 146.527 169.53 149.479C167.822 151.973 165.21 155.032 163.729 156.282C162.248 157.526 159.824 159.147 158.343 159.885C156.862 160.623 154.681 161.538 153.496 161.926C152.311 162.314 149.887 162.772 148.11 162.944L144.878 163.256L144.609 187.763C150.453 187.763 153.786 187.418 155.785 186.998C157.783 186.572 161.117 185.592 163.19 184.817C165.264 184.041 168.533 182.538 170.461 181.483C172.384 180.422 175.417 178.402 177.194 176.985C178.971 175.569 182.009 172.747 183.948 170.716C185.882 168.685 188.332 165.815 189.388 164.334C190.444 162.852 192.172 160.062 193.228 158.14C194.278 156.212 195.867 152.576 196.751 150.061C197.634 147.54 198.776 143.544 199.282 141.174C199.885 138.373 200.219 134.323 200.246 129.594C200.268 124.881 199.961 120.712 199.384 117.745C198.889 115.224 197.795 111.104 196.95 108.589C196.104 106.068 194.348 101.948 193.04 99.4323C191.736 96.9117 189.302 93.0338 187.627 90.8147C185.957 88.5903 182.375 84.6532 179.677 82.0625C176.979 79.4718 173.257 76.3587 171.404 75.1469C169.551 73.935 165.372 71.6514 162.113 70.0786C158.855 68.5005 154.19 66.5831 151.745 65.8183C149.3 65.0535 145.303 64.0733 142.858 63.6478C140.413 63.2223 135.625 62.7537 132.221 62.6083C128.812 62.4575 124.088 62.5706 121.718 62.856Z" fill="white"/>
</svg>
